<?xml version="1.0" encoding="UTF-8" standalone="no"?>
<svg xmlns="http://www.w3.org/2000/svg" version="1.0" width="514" height="120" viewBox="0 0 514 120" preserveAspectRatio="xMidYMid meet">
  <g transform="matrix(0.1,0,0,-0.1,0,120)" fill="#000000" stroke="none">
    <path d="M 29,1153 C 8,1107 8,1094 8,775 9,594 13,371 18,280 28,91 34,75 108,38 206,-9 347,17 453,101 l 37,30 10,-26 c 6,-15 10,-30 10,-35 0,-5 12,-22 26,-39 26,-31 26,-31 127,-31 76,0 112,5 142,18 35,16 47,17 105,6 76,-15 174,-12 213,6 26,13 27,16 27,95 0,122 -94,896 -121,988 -15,53 -53,68 -178,69 -110,0 -158,-7 -183,-29 -19,-17 -43,-86 -53,-153 -12,-80 -20,-80 -59,-2 -41,81 -92,143 -148,178 -35,23 -47,24 -197,24 H 51 Z m 302,-33 C 419,1095 517,945 547,788 565,690 560,512 535,412 479,180 323,59 148,109 l -46,13 -9,147 c -10,178 -11,819 -1,844 6,14 21,17 105,17 54,0 114,-5 134,-10 z m 634,-32 c 13,-36 127,-988 120,-996 -2,-2 -48,0 -101,5 l -98,8 -16,55 c -13,47 -20,55 -42,58 -24,3 -28,-2 -42,-51 -9,-30 -16,-59 -16,-65 0,-13 -50,-22 -125,-22 -75,0 -74,-4 -70,141 3,145 114,827 142,872 8,13 243,8 248,-5 z"/>
    <path d="m 282,547 c -2,-45 -1,-124 3,-175 l 7,-94 24,23 c 36,34 61,97 69,171 l 6,67 c -3,68 -54,90 -98,91 -5,0 -9,-37 -11,-83 z"/>
    <path d="m 830,639 c 0,-2 -9,-56 -20,-119 -25,-146 -25,-150 3,-150 50,0 52,8 38,142 -7,68 -15,125 -17,127 -2,2 -4,2 -4,0 z"/>
    <path d="m 1610,1179 c -19,-5 -54,-16 -77,-25 -40,-14 -42,-18 -53,-71 -13,-61 -7,-454 11,-773 17,-292 19,-295 173,-295 58,0 108,4 112,8 4,4 10,81 13,170 l 6,162 43,9 c 23,5 45,6 49,3 3,-4 9,-48 14,-99 13,-141 26,-187 58,-200 24,-9 113,-5 164,7 18,5 26,-1 41,-30 13,-23 26,-35 40,-35 34,1 93,26 130,54 19,14 37,26 40,26 2,0 14,-16 26,-35 l 22,-35 h 136 c 75,0 183,-1 240,-1 56,-1 135,-1 175,-1 39,0 97,0 127,-1 35,-1 67,4 89,16 33,17 35,16 55,-2 19,-17 37,-19 216,-16 212,2 237,8 303,69 36,33 101,171 124,261 9,39 20,74 24,78 3,5 17,-20 29,-54 l 24,-62 -37,-29 c -34,-28 -37,-34 -37,-81 1,-29 6,-81 13,-117 l 12,-65 h 82 c 76,0 84,2 111,28 63,61 110,223 97,337 -3,30 -15,102 -27,159 l -21,104 32,26 33,27 v 104 c 0,125 -13,182 -60,273 -36,71 -81,117 -112,117 -63,0 -119,-49 -156,-136 -15,-35 -30,-64 -33,-64 -3,0 -21,23 -40,51 -47,69 -106,117 -165,134 -66,20 -282,20 -357,1 -49,-13 -62,-13 -104,0 -61,18 -371,19 -465,1 -54,-11 -74,-11 -120,1 -68,17 -165,11 -217,-14 -32,-16 -39,-26 -47,-61 -5,-24 -12,-43 -15,-43 -4,0 -27,21 -51,46 -77,78 -72,77 -370,80 -146,1 -281,-2 -300,-7 z m 2485,-139 c 49,-83 63,-131 64,-226 1,-43 -3,-54 -29,-79 -44,-42 -46,-77 -14,-217 42,-185 36,-262 -28,-375 -29,-53 -30,-53 -78,-53 h -49 l -6,45 c -6,40 -4,48 24,83 60,77 60,90 -11,266 -59,145 -73,226 -60,344 6,54 20,122 31,153 19,51 82,139 100,139 4,0 29,-36 56,-80 z M 1881,995 c -2,-60 -6,-157 -10,-215 l -6,-105 -69,3 c -61,4 -68,2 -62,-13 3,-9 6,-37 6,-61 v -44 h 66 c 57,0 65,-2 61,-17 -3,-10 -8,-35 -11,-55 -7,-38 -12,-42 -77,-53 -33,-6 -37,-11 -43,-43 -3,-21 -6,-97 -6,-170 V 89 l -77,3 -78,3 -7,40 c -8,42 -13,145 -28,576 -9,252 -6,364 10,374 4,3 45,8 91,11 46,4 86,8 89,11 2,2 38,2 80,1 l 75,-3 z m 297,89 c 173,-86 234,-402 122,-630 -22,-44 -40,-86 -40,-92 0,-7 18,-55 40,-107 l 39,-95 -55,-35 c -30,-20 -59,-33 -63,-31 -5,3 -21,40 -36,83 -15,43 -30,82 -35,86 -4,4 -10,-15 -13,-44 -4,-28 -8,-53 -10,-55 -8,-9 -143,-32 -149,-26 -3,4 -11,108 -17,232 -6,124 -16,327 -22,451 -6,125 -8,232 -5,238 4,6 24,20 44,31 55,29 135,26 200,-6 z m 406,14 c 3,-7 7,-199 10,-427 3,-227 9,-443 12,-480 l 7,-67 -77,-21 c -42,-11 -78,-17 -80,-14 -3,5 -9,60 -21,216 -2,28 -7,129 -10,225 -3,96 -10,256 -16,354 l -10,179 28,23 c 22,19 40,23 91,24 42,0 64,-4 66,-12 z m 412,-135 c -3,-82 -9,-181 -13,-221 -5,-68 -7,-73 -27,-68 -12,3 -40,8 -64,12 l -43,7 2,-67 2,-66 h 65 64 l -7,-52 c -4,-29 -9,-56 -12,-60 -2,-5 -29,-8 -59,-8 h -54 v -80 -80 h 60 60 v -84 -83 l -45,-6 c -25,-4 -87,-10 -138,-13 l -94,-7 -7,42 c -22,141 -46,944 -28,955 5,3 51,8 103,12 52,4 96,8 98,10 2,2 36,4 74,4 h 70 z m 232,20 c 27,-71 57,-148 65,-173 16,-44 16,-41 14,125 l -2,170 58,3 57,3 V 599 87 l -66,6 c -43,4 -70,12 -78,22 -6,9 -33,75 -60,148 -27,73 -53,136 -57,141 -5,6 -9,-61 -9,-153 V 89 l -52,3 -53,3 -1,500 c 0,275 1,503 3,508 2,4 33,7 68,7 h 63 z m 439,95 c 79,-37 134,-124 166,-262 6,-28 11,-123 11,-211 0,-179 -14,-258 -64,-361 C 3714,108 3584,52 3496,121 l -26,21 2,476 3,477 30,7 c 44,10 114,0 162,-24 z M 2378,352 c 2,-13 1,-30 -2,-39 -6,-14 -9,-14 -26,2 -20,18 -26,46 -13,59 14,13 38,0 41,-22 z"/>
    <path d="m 2134,644 c -7,-27 3,-205 13,-230 5,-13 8,-12 24,2 33,30 52,98 46,162 -9,81 -14,92 -48,92 -22,0 -30,-6 -35,-26 z"/>
    <path d="m 3639,614 c -9,-11 -13,-54 -13,-142 -1,-138 8,-206 27,-199 28,9 58,86 64,164 5,71 3,83 -21,130 -30,61 -39,68 -57,47 z"/>
    <path d="m 4589 1127 c -97 -81 -92 -67 -72 -211 17 -125 17 -126 58 -166 l40 -39 55 14 c85 23 83 23 75 -42 -4 -31 -11 -67 -16 -79 -13 -37 -78 -103 -156 -161 l -73 -54 V 245 101 l 36 -34 36 -34 147 -6 c80 -4 189 -10 241 -13 l95 -7 34 43 c42 52 50 89 51 215 v 99 l-46 47 -45 46 43 69 c56 64 43 132 43 214 0 145 -1 147 -33 212 -25 51 -53 86 -119 147 -88 93 -83 82 -206 82 -106 1 -110 7 -187 -54 z m 330 -77 c 44 -37 68 -67 93 -117 31 -63 33 -75 37 -189 13 -122 -4 -132 -68 -233 -39 -61 -74 -117 -77 -126 -5 -13 6 -15 70 -15 h 76 V 266 c 0 -57 -3 -118 -6 -135 l -7 -31 -226 6 c -124 4 -227 8 -228 9 -2 1 -6 53 -9 116 l -7 114 61 38 c 72 45 158 135 185 197 28 60 27 208 0 228 -19 14 -131 12 -164 -2 -14 -6 -21 9 -43 100 -14 59 -23 111 -20 116 3 5 29 24 57 43 49 33 57 35 134 35 69 0 91 -8 142 -50 z"/>
  </g>
</svg>
