<?xml version="1.0" encoding="UTF-8" standalone="no"?>
<svg xmlns="http://www.w3.org/2000/svg" version="1.1" width="514" height="120" viewBox="0 0 514 120">
  <g>
    <path
       d="m 54.0,117.8 c -1.4,-1.1 -3.1,-3.6 -3.7,-5.7 -1.7,-5.5 -1.7,-5.5 -5.9,-2.2 -13.1,10.4 -34.0,11.1 -40.4,1.4 C -0.2,104.8 -1.5,14.4 2.4,5.1 L 4.6,0.0 H 20.5 36.5 l 4.2,2.9 c 6.0,4.1 10.0,9.0 14.1,17.2 3.8,7.7 4.6,7.7 5.8,-0.2 C 63.1,4.3 65.0,2.6 80.7,2.2 96.0,1.8 100.3,2.9 102.0,8.1 c 2.5,7.9 12.3,86.4 12.3,99.5 v 7.9 l -3.2,1.3 c -3.6,1.5 -16.9,1.6 -23.2,0.1 -3.1,-0.7 -4.8,-0.5 -7.9,0.8 -6.0,2.7 -22.2,2.6 -25.7,-0.1 z m 19.0,-6.5 c 2.2,-0.4 3.2,-1.3 3.6,-3.2 2.4,-10.1 2.5,-10.2 5.2,-9.9 2.2,0.2 2.8,1.0 4.2,5.8 l 1.5,5.4 9.7,0.8 c 5.3,0.4 9.9,0.7 10.1,0.4 0.5,-0.5 -3.7,-38.5 -8.0,-72.0 L 95.9,10.0 H 83.6 c -14.8,0 -13.2,-1.9 -17.2,21.0 -8.5,49.4 -11.2,71.5 -9.3,78.6 0.5,2.2 8.6,2.9 16.1,1.4 z m 5.2,-30.0 c 0.0,-2.3 3.8,-24.3 4.3,-24.8 0.4,-0.4 2.6,18.3 2.6,22.5 0,2.8 -1.4,4.0 -5.0,4.0 -1.1,0 -1.9,-0.6 -1.9,-1.7 z M 33.3,107.4 C 62.7,92.5 62.1,16.3 32.5,8.0 27.1,6.5 9.6,6.7 8.6,8.2 6.8,11.1 7.9,105.5 9.7,107.6 12.8,111.0 26.4,110.9 33.3,107.4 Z M 27.9,81.7 c -0.6,-10.0 -0.4,-24.7 0.3,-24.7 5.3,-0.1 10.3,9.6 9.2,18.0 -2.2,15.9 -8.7,20.4 -9.5,6.7 z M 155.6,117.9 c -5.8,-2.5 -6.8,-9.8 -8.3,-60.9 -1.7,-58.9 -4.0,-56.1 44.0,-55.5 28.4,0.3 27.4,0.0 35.7,7.9 5.9,5.6 5.6,5.6 6.8,0.1 1.5,-6.9 14.0,-10.4 26.3,-7.2 4.5,1.1 6.6,1.1 11.9,0.1 9.5,-1.8 40.3,-1.7 46.7,0.1 4.0,1.1 5.6,1.2 7.9,0.3 17.6,-7.1 45.1,-0.5 54.4,13.0 4.2,6.3 4.0,6.3 7.3,-1.3 11.0,-25.8 31.1,-11.5 32.2,23.0 l 0.4,13.0 -3.4,2.6 -3.4,2.6 1.8,7.1 c 8.2,32.4 1.0,55.4 -17.4,55.4 h -8.1 l -1.2,-6.4 c -2.3,-12.3 -1.8,-16.3 2.3,-19.7 l 3.6,-2.9 -2.3,-6.1 c -2.7,-7.3 -3.0,-7.1 -5.9,3.8 -4.2,15.8 -10.8,25.9 -19.5,29.5 -6.3,2.6 -41.1,2.8 -44.0,0.2 -2.0,-1.8 -2.1,-1.8 -6.9,0.3 -4.5,2.0 -5.4,2.0 -12.9,1.0 -5.9,-0.8 -9.5,-0.8 -13.9,-0.0 -3.8,0.7 -8.9,0.8 -14.4,0.3 -4.6,-0.4 -14.2,-0.6 -21.1,-0.5 l -12.6,0.2 -1.5,-2.9 c -2.2,-4.3 -3.1,-4.5 -7.0,-1.5 -7.9,6.0 -14.3,6.7 -16.9,1.8 -1.5,-2.8 -2.3,-3.4 -4.2,-2.9 -17.3,4.3 -20.8,1.3 -22.0,-19.2 -0.6,-10.3 -1.0,-10.8 -6.9,-9.4 l -3.7,0.8 -0.5,16.1 c -0.3,8.8 -0.8,16.4 -1.2,16.8 -1.0,1.0 -19.0,1.4 -21.4,0.4 z m 103.9,-10.0 c 0.4,0 0.4,-5.2 0.1,-11.7 -0.3,-6.4 -0.9,-28.5 -1.2,-49.1 L 257.7,9.5 251.2,9.3 c -5.5,-0.2 -6.9,0.1 -9.3,2.1 l -2.8,2.3 1.0,17.8 c 0.5,9.8 1.3,26.1 1.6,36.3 0.3,10.1 0.7,20.0 0.9,21.9 0.1,1.9 0.6,7.3 1.0,11.9 0.8,10.7 0.3,10.1 8.2,7.9 3.7,-1.0 7.0,-1.9 7.5,-1.9 z m -87.2,-9.3 c 0,-6.7 0.2,-14.4 0.6,-16.9 l 0.6,-4.6 4.9,-0.6 c 5.3,-0.7 5.8,-1.3 7.1,-8.6 l 0.6,-3.7 h -6.4 -6.4 l -0.3,-6.0 -0.3,-6.0 6.4,0.3 6.4,0.3 0.6,-9.4 c 0.3,-5.2 0.7,-14.8 0.9,-21.4 l 0.3,-11.9 -9.4,-0.0 c -5.2,-0.0 -12.8,0.4 -16.9,0.9 l -7.4,1.0 -0.6,4.4 c -1.3,9.3 1.8,90.9 3.7,93.9 0.2,0.4 3.8,0.8 7.9,0.8 h 7.4 z m 55.4,8.8 5.4,-3.4 -3.9,-9.4 C 224.4,82.8 224.4,84.3 229.2,74.5 245.9,40.9 223.0,-3.5 196.8,11.3 l -3.9,2.2 0.0,7.9 c 0.0,21.0 3.2,83.3 4.3,84.5 3.2,3.5 15.1,-2.5 15.7,-8.0 0.7,-6.5 1.3,-6.0 4.9,4.2 3.3,9.8 2.7,9.5 9.8,5.0 z M 213.9,78.5 c -0.9,-2.5 -1.9,-20.3 -1.3,-23.0 1.8,-7.2 7.2,-2.8 8.2,6.5 0.8,8.2 -4.9,21.8 -6.9,16.4 z m 77.7,30.6 4.4,-0.6 v -8.3 -8.3 h -5.9 -5.9 v -7.9 -7.9 h 5.4 c 6.2,0 6.1,0.1 7.0,-6.7 l 0.7,-5.2 -6.3,5.4e-4 -6.3,5.3e-4 v -6.5 -6.5 l 3.4,0.5 c 1.9,0.3 4.6,0.8 6.1,1.1 3.0,0.6 3.3,-0.9 4.5,-27.9 L 299.5,8.7 286.6,9.5 c -7.0,0.4 -14.9,1.0 -17.3,1.3 l -4.4,0.6 0.3,33.4 c 0.2,31.2 1.2,52.2 2.8,62.0 l 0.6,4.1 9.3,-0.6 c 5.1,-0.3 11.3,-0.9 13.8,-1.2 z m 22.4,-14.5 c 0,-9.0 0.3,-15.7 0.8,-15.2 0.4,0.5 3.2,7.3 6.1,15.2 6.0,16.3 4.9,15.0 13.4,15.8 l 6.5,0.6 V 60.0 8.9 l -5.7,0.2 -5.7,0.2 0.1,16.9 c 0.1,16.5 0.1,16.8 -1.3,12.4 -0.8,-2.4 -3.7,-10.2 -6.5,-17.2 l -4.9,-12.7 -6.6,0.2 -6.6,0.2 -0.2,49.4 c -0.2,56.6 -0.8,51.9 5.7,51.9 h 5.0 z m 50.4,14.3 C 399.1,93.4 387.0,4.9 351.0,9.6 l -4.8,0.6 v 47.6 c 0,44.3 0.1,47.7 1.7,49.2 4.3,3.9 10.6,4.6 16.7,1.8 z m -2.2,-19.7 c -1.3,-6.2 -0.8,-28.8 0.6,-30.6 3.3,-4.0 8.5,7.2 7.7,17.1 -0.9,12.0 -6.7,21.4 -8.3,13.5 z m 45.4,16.4 c 6.4,-11.4 7.0,-19.4 2.7,-37.6 -3.1,-13.4 -2.8,-16.9 1.5,-21.5 l 3.1,-3.2 -0.6,-8.7 c -0.6,-8.6 -3.8,-16.3 -10.2,-24.7 -3.7,-4.9 -12.5,10.7 -14.4,25.8 -1.7,13.5 -0.4,20.1 7.4,40.2 5.0,12.8 5.1,15.0 0.0,21.7 -3.2,4.2 -3.5,5.1 -2.9,9.1 l 0.6,4.4 h 4.8 c 4.8,0 4.8,-0.0 7.8,-5.2 z M 237.1,85.2 c -0.2,-2.0 -0.8,-2.8 -2.3,-2.8 -2.6,0 -3.1,3.1 -0.9,5.5 2.1,2.4 3.6,1.1 3.2,-2.7 z m 247.0,32.5 c -4.6,-0.4 -12.7,-0.7 -18.0,-0.8 l -9.5,-0.0 -3.6,-3.7 -3.6,-3.7 -0.0,-14.1 -0.0,-14.1 6.8,-5.0 c 12.8,-9.5 16.3,-14.4 17.6,-24.3 0.8,-6.5 0.9,-6.4 -7.5,-4.1 l -5.4,1.4 -4.0,-4.0 c -3.9,-3.8 -4.1,-4.3 -5.3,-13.7 -0.6,-5.3 -1.4,-11.1 -1.7,-12.8 -0.4,-2.9 0.0,-3.6 7.2,-9.7 l 7.7,-6.5 h 11.7 11.7 l 4.8,3.8 C 513.3,22.1 519.9,48.9 508.1,67.6 l -4.1,6.5 4.5,4.6 4.5,4.6 -0.0,9.9 c -0.0,23.9 -3.2,26.6 -28.9,24.3 z m 19.8,-21.6 0.3,-13.2 h -7.6 c -9.1,0 -9.1,1.0 0.6,-14.1 l 7.1,-11.0 -0.4,-12.6 c -0.5,-15.8 -3.1,-21.9 -12.8,-30.0 l -6.0,-5.0 h -8.1 c -8.1,0 -14.7,2.6 -18.7,7.4 -2.8,3.4 3.7,22.9 7.3,21.5 12.7,-4.8 19.7,2.8 16.4,18.0 -1.8,8.4 -10.9,19.2 -21.5,25.5 -4.8,2.8 -5.2,5.1 -3.6,20.1 l 0.6,6.1 15.1,0.3 c 8.3,0.1 18.7,0.3 23.1,0.2 l 7.9,-0.0 0.3,-13.2 z"
       style="fill:#000000;stroke-width:1" />
  </g>
</svg>
